<svg height="511pt" viewBox="0 0 511 511.99799" width="511pt" xmlns="http://www.w3.org/2000/svg"><path d="m52.835938 24.222656-5.457032 49.09375 33.308594 33.308594 5.457031-49.097656zm0 0" fill="#ff6969"/><path d="m42.601562 14.558594 102.28125 102.277344-27.273437 27.273437-102.28125-102.277344" fill="#ff6969"/><path d="m27.886719 29.273438 102.277343 102.28125-12.554687 12.554687-102.28125-102.277344" fill="#fe3934"/><path d="m124.425781 183.65625-21.820312-21.816406 60.003906-60.003906 21.820313 21.820312" fill="#f7c98a"/><path d="m124.425781 183.65625-21.820312-21.816406 17.59375-17.59375 21.820312 21.820312" fill="#dfb176"/><path d="m102.605469 205.476562 103.640625-103.640624 21.820312 21.820312-103.640625 103.640625zm0 0" fill="#f7c98a"/><path d="m140.789062 210.933594c22.476563 13.484375 41.832032 31.578125 56.800782 53.09375l13.40625 19.273437c61.878906 88.949219 148.175781 158.09375 248.480468 199.085938l38.808594 15.859375-15.308594-37.953125c-40.859374-101.304688-110.386718-188.488281-200.054687-250.867188l-18.121094-12.609375c-21.515625-14.964844-39.613281-34.324218-53.097656-56.796875" fill="#dcdde2"/><path d="m499.195312 499.164062-39.910156-16.3125c-100.625-41.125-186.625-110.03125-248.703125-199.265624l-13.40625-19.273438c-15.027343-21.597656-34.082031-39.414062-56.644531-52.949219l.519531-.863281c22.683594 13.609375 41.84375 31.523438 56.953125 53.238281l13.40625 19.273438c61.964844 89.074219 147.8125 157.855469 248.257813 198.90625l37.703125 15.410156-14.863282-36.847656c-40.929687-101.484375-110.046874-188.15625-199.875-250.644531l-18.121093-12.605469c-21.714844-15.105469-39.628907-34.269531-53.238281-56.953125l.863281-.515625c13.535156 22.558593 31.351562 41.617187 52.949219 56.640625l18.121093 12.605468c89.988281 62.601563 159.230469 149.429688 200.238281 251.09375zm0 0" fill="#dcdde2"/><path d="m482.066406 453.078125-21.019531-8.304687c-100.78125-39.8125-187.882813-107.941407-250.800781-196.160157l-13.628906-19.113281c-10.253907-14.378906-22.488282-27.171875-36.300782-38.039062l-21.074218 21.574218c22.632812 13.21875 42.199218 31.085938 57.417968 52.425782l13.628906 19.113281c62.917969 88.21875 150.023438 156.347656 250.800782 196.164062l38.988281 15.402344-15.75-37.773437c-.738281-1.769532-1.507813-3.527344-2.261719-5.289063zm0 0" fill="#c4c4ca"/><path d="m102.605469 205.476562 18.640625-18.640624 21.820312 21.820312-18.640625 18.640625zm0 0" fill="#dfb176"/><path d="m169.539062 179.453125 10.683594-10.679687 139.683594 139.683593-10.683594 10.679688zm0 0"/><path d="m489.980469 457.464844c-41.519531-102.9375-111.628907-190.855469-202.746094-254.242188l-18.121094-12.605468c-19.167969-13.332032-35.226562-29.972657-47.820312-49.503907l17.457031-17.457031-32.5-32.5-21.820312 21.816406-21.816407-21.816406-16.367187 16.363281-91.917969-91.917969 4.917969-4.921874-10.679688-10.679688-48.066406 48.066406 10.679688 10.679688 5.191406-5.191406 91.917968 91.917968-16.363281 16.363282 21.816407 21.820312-21.816407 21.820312 32.5 32.5 17.457031-17.457031c19.535157 12.597657 36.171876 28.65625 49.503907 47.820313l13.40625 19.269531c62.855469 90.355469 149.9375 160.125 251.824219 201.765625l55.355468 22.621094zm-448.425781-400.089844-14.5-14.5 16.589843-16.59375 1.226563 1.226562zm33.304687 33.304688-19.628906-19.625 3.320312-29.867188 19.628907 19.628906zm30.003906 30.003906-16.324219-16.324219 3.316407-29.867187 16.324219 16.324218zm16.996094-16.1875 13.703125 13.703125-16.589844 16.59375-.433594-.429688zm-8.570313 57.34375 49.320313-49.324219 11.140625 11.140625-49.324219 49.320312zm0 43.636718 92.960938-92.960937 11.136719 11.140625-92.960938 92.960938zm349.042969 269.917969c-99.183593-40.535156-183.949219-108.453125-245.136719-196.410156l-13.40625-19.269531c-13.84375-19.902344-30.972656-36.714844-50.996093-50.105469l57.585937-57.585937c13.386719 20.023437 30.203125 37.148437 50.105469 50.992187l18.121094 12.609375c88.699219 61.703125 156.945312 147.285156 197.363281 247.492188l8.625 21.375zm0 0"/></svg>